<?xml version="1.0" standalone="no"?>
<!DOCTYPE svg PUBLIC "-//W3C//DTD SVG 20010904//EN"
 "http://www.w3.org/TR/2001/REC-SVG-20010904/DTD/svg10.dtd">
<svg version="1.0" xmlns="http://www.w3.org/2000/svg"
 width="2206.000000pt" height="2384.000000pt" viewBox="0 0 2206.000000 2384.000000"
 preserveAspectRatio="xMidYMid meet">
<metadata>
Created by potrace 1.15, written by Peter Selinger 2001-2017
</metadata>
<g transform="translate(0.000000,2384.000000) scale(0.100000,-0.100000)"
fill="#000000" stroke="none">
<path d="M9482 19900 c-8 -14 -21 -19 -40 -18 -57 6 -439 -29 -467 -42 -21 -9
-109 -27 -180 -37 -22 -3 -47 -11 -55 -17 -8 -7 -46 -21 -85 -30 -38 -10 -89
-27 -112 -37 -24 -10 -51 -19 -60 -19 -10 0 -36 -8 -58 -19 -53 -25 -196 -71
-220 -71 -11 0 -29 -7 -39 -15 -22 -17 -76 -20 -76 -5 0 6 -7 10 -15 10 -8 0
-15 -8 -15 -17 0 -12 -16 -24 -48 -36 -54 -22 -105 -44 -144 -64 -14 -7 -31
-13 -38 -13 -6 0 -35 -11 -63 -24 -29 -14 -90 -41 -136 -61 -46 -20 -93 -42
-105 -50 -11 -8 -28 -15 -37 -15 -9 0 -22 -7 -29 -15 -7 -8 -60 -39 -119 -67
-58 -29 -121 -65 -139 -80 -18 -15 -37 -28 -43 -28 -6 0 -42 -18 -80 -41 -39
-22 -76 -38 -84 -35 -8 3 -25 -4 -38 -15 -14 -10 -30 -19 -36 -19 -6 0 -11 -5
-11 -10 0 -6 -8 -14 -17 -18 -37 -15 -93 -58 -99 -74 -3 -10 -15 -18 -28 -18
-13 0 -29 -7 -36 -15 -7 -8 -19 -15 -26 -15 -8 0 -14 -4 -14 -9 0 -5 -9 -13
-21 -16 -11 -4 -25 -19 -30 -34 -5 -14 -40 -50 -77 -79 -108 -85 -171 -132
-176 -132 -3 0 -35 -29 -73 -65 -37 -36 -73 -65 -80 -65 -6 0 -23 -14 -38 -32
-38 -45 -94 -88 -109 -82 -7 3 -29 -12 -50 -32 -29 -28 -36 -42 -32 -59 3 -13
2 -25 -3 -27 -11 -4 -276 -255 -348 -329 -29 -31 -67 -77 -83 -102 -16 -25
-37 -50 -48 -56 -11 -6 -24 -24 -30 -40 -6 -15 -27 -41 -47 -57 -20 -15 -43
-45 -52 -65 -8 -21 -23 -41 -33 -44 -10 -3 -21 -18 -25 -32 -3 -15 -32 -56
-64 -92 -32 -36 -67 -84 -79 -106 -11 -22 -31 -52 -45 -67 -13 -14 -31 -40
-38 -57 -8 -17 -21 -31 -29 -32 -16 0 -80 -92 -80 -115 0 -8 -4 -14 -10 -14
-5 0 -17 -15 -25 -32 -21 -46 -64 -121 -75 -132 -6 -6 -10 -18 -10 -27 0 -9
-7 -19 -15 -23 -8 -3 -15 -14 -15 -24 0 -10 -5 -23 -11 -29 -11 -11 -43 -69
-93 -170 -15 -29 -31 -53 -36 -53 -6 0 -10 -11 -10 -25 0 -14 -7 -28 -15 -31
-8 -4 -15 -14 -15 -24 0 -10 -6 -25 -14 -32 -7 -8 -17 -25 -21 -38 -4 -13 -18
-44 -31 -68 -13 -25 -24 -53 -24 -62 0 -10 -7 -20 -15 -24 -10 -4 -15 -20 -15
-54 0 -26 -5 -53 -11 -59 -5 -5 -13 -32 -17 -59 -5 -34 -12 -49 -22 -49 -17 0
-48 -161 -49 -257 -1 -31 -6 -69 -11 -84 -6 -15 -13 -64 -16 -108 -6 -95 -22
-176 -35 -176 -5 0 -9 -161 -9 -379 0 -294 3 -381 13 -385 10 -5 9 -7 0 -12
-15 -7 -19 -244 -4 -244 5 0 12 -27 16 -59 4 -37 12 -62 21 -65 17 -6 19 -63
3 -68 -8 -3 -9 -23 -4 -66 4 -34 11 -60 15 -57 17 10 31 -33 19 -53 -12 -19
-4 -112 9 -112 4 0 8 -28 9 -63 3 -85 6 -100 23 -114 13 -11 13 -14 0 -22 -12
-9 -13 -17 -1 -58 7 -26 15 -75 18 -108 3 -37 11 -65 20 -72 8 -6 14 -22 13
-35 -6 -71 0 -106 20 -111 18 -5 19 -11 14 -79 -6 -65 -4 -76 10 -81 14 -5 16
-14 11 -37 -7 -33 2 -73 15 -65 14 9 30 -30 30 -75 0 -22 11 -67 25 -100 14
-33 25 -68 25 -79 0 -22 27 -94 64 -176 13 -27 33 -79 45 -114 12 -35 30 -80
40 -100 10 -20 21 -49 25 -65 8 -33 24 -68 121 -271 39 -82 78 -166 85 -185
21 -53 81 -161 107 -193 13 -16 23 -33 23 -39 0 -6 39 -50 88 -97 48 -47 119
-121 157 -163 38 -43 73 -78 79 -78 15 0 66 -52 66 -68 0 -10 -14 -12 -66 -9
-36 2 -71 10 -77 16 -6 6 -21 11 -33 11 -12 0 -27 7 -35 16 -8 10 -23 14 -42
11 -18 -2 -31 1 -34 9 -7 18 -73 36 -88 24 -15 -12 -40 4 -30 20 6 10 1 11
-21 6 -16 -3 -60 -7 -99 -9 -60 -2 -80 -8 -137 -40 -38 -21 -68 -33 -68 -26 0
8 -4 8 -15 -1 -8 -7 -12 -16 -9 -21 3 -5 -4 -22 -15 -38 -12 -16 -21 -33 -21
-39 0 -5 -13 -26 -29 -45 -26 -34 -28 -40 -20 -84 5 -26 14 -52 19 -57 6 -6
10 -23 10 -38 0 -15 4 -28 10 -28 5 0 12 -17 16 -37 4 -21 13 -44 21 -51 7 -7
13 -27 13 -43 0 -18 5 -29 14 -29 8 0 18 -10 22 -22 3 -12 21 -42 39 -67 18
-25 40 -73 50 -106 18 -61 91 -207 106 -213 5 -2 9 -12 9 -21 0 -10 11 -31 25
-47 14 -16 28 -38 31 -49 6 -18 102 -151 168 -231 14 -17 41 -54 59 -81 19
-28 44 -61 56 -74 26 -28 61 -92 61 -112 0 -8 7 -20 15 -27 9 -7 14 -19 11
-27 -3 -7 4 -22 15 -32 12 -11 18 -24 15 -29 -3 -6 1 -17 9 -25 8 -9 15 -19
15 -22 0 -14 102 -218 116 -232 8 -8 14 -23 14 -34 0 -10 4 -19 8 -19 4 0 20
-26 36 -57 45 -93 59 -118 68 -121 4 -2 8 -10 8 -18 0 -8 4 -14 10 -14 5 0 21
-20 36 -45 14 -25 29 -45 33 -45 4 0 20 -21 37 -47 16 -26 42 -61 57 -77 16
-17 33 -40 38 -51 15 -33 33 -59 47 -68 6 -4 12 -17 12 -28 0 -11 7 -22 15
-25 8 -4 15 -11 15 -16 0 -6 13 -29 29 -53 16 -24 32 -53 36 -64 3 -12 11 -21
16 -21 5 0 9 -6 9 -14 0 -7 7 -19 15 -26 9 -8 15 -30 15 -58 0 -27 6 -49 14
-56 8 -6 28 -54 44 -106 71 -227 86 -253 162 -287 8 -3 31 -18 50 -33 19 -15
47 -30 63 -34 15 -3 27 -11 27 -16 0 -6 8 -10 19 -10 10 0 24 -7 31 -15 7 -8
19 -15 27 -15 7 0 25 -7 38 -16 19 -13 55 -16 162 -18 121 -1 142 1 170 18 18
11 34 18 36 15 8 -10 67 -206 67 -221 0 -10 4 -18 9 -18 5 0 12 -17 16 -37 4
-21 12 -44 18 -52 7 -8 12 -27 13 -43 1 -16 9 -37 18 -47 9 -10 16 -26 16 -37
0 -11 4 -24 8 -30 4 -5 18 -36 31 -69 13 -33 29 -74 37 -92 8 -17 14 -38 14
-46 0 -8 7 -20 15 -27 8 -7 15 -19 15 -28 0 -8 13 -44 30 -79 16 -34 30 -71
30 -82 0 -10 7 -24 15 -31 8 -7 15 -19 15 -27 0 -8 21 -36 48 -62 67 -69 95
-101 123 -141 13 -19 30 -41 37 -48 6 -7 26 -35 44 -60 18 -26 40 -56 50 -66
10 -11 18 -23 18 -26 0 -4 16 -27 35 -51 19 -24 35 -49 35 -56 0 -6 6 -18 14
-25 7 -8 24 -34 37 -57 13 -24 29 -51 34 -60 6 -9 22 -34 35 -56 14 -23 31
-50 38 -60 6 -11 16 -29 21 -41 5 -11 26 -38 46 -60 21 -21 68 -75 105 -119
38 -44 90 -103 117 -131 52 -56 64 -70 133 -154 25 -30 56 -67 70 -81 14 -15
45 -50 68 -78 24 -28 48 -51 52 -51 5 0 24 -13 42 -30 18 -16 38 -30 46 -30 7
0 15 -7 18 -15 4 -8 11 -15 18 -15 6 0 24 -14 40 -30 16 -17 35 -30 42 -30 7
0 17 -6 21 -13 4 -8 32 -31 61 -52 28 -22 52 -43 52 -47 0 -4 5 -8 11 -8 6 0
24 -12 41 -27 17 -16 38 -35 47 -43 9 -8 39 -33 66 -55 28 -22 52 -43 53 -47
2 -5 8 -8 14 -8 5 0 24 -13 41 -29 61 -57 102 -91 110 -91 6 0 156 -108 194
-140 7 -5 15 -10 18 -10 3 0 23 -13 43 -29 46 -36 166 -101 187 -101 8 0 15
-4 15 -9 0 -5 10 -13 23 -16 23 -7 82 -32 107 -47 8 -4 22 -11 30 -14 8 -3 27
-12 42 -20 14 -8 33 -14 41 -14 9 0 29 -7 46 -15 17 -8 45 -22 62 -30 17 -8
38 -15 48 -15 9 0 26 -7 37 -15 10 -8 28 -15 40 -15 11 0 29 -7 40 -15 10 -8
28 -15 39 -15 11 0 29 -7 39 -15 11 -8 30 -15 42 -15 12 0 27 -7 34 -15 7 -8
25 -15 40 -15 15 0 33 -7 40 -15 7 -8 22 -15 34 -15 11 -1 32 -7 46 -15 14 -8
39 -15 55 -15 17 0 41 -7 55 -15 14 -8 43 -15 65 -15 22 0 49 -7 59 -15 11 -8
39 -15 62 -15 23 0 58 -7 77 -15 20 -8 61 -15 90 -15 30 0 74 -7 97 -15 23 -8
64 -15 89 -15 26 0 71 -6 101 -14 30 -7 94 -16 141 -19 47 -2 95 -10 107 -16
11 -6 56 -11 99 -11 43 -1 105 -7 138 -15 37 -9 112 -15 196 -15 75 0 180 -7
235 -15 54 -8 149 -15 209 -15 109 0 216 -19 223 -40 5 -14 1799 -14 1804 0 6
18 109 40 184 40 39 0 91 7 114 15 23 8 74 15 112 15 38 0 79 5 91 12 12 7 60
15 107 19 92 8 169 22 240 45 25 8 56 14 70 14 14 0 38 7 54 15 15 8 43 15 60
15 18 0 41 7 52 15 10 8 35 15 54 15 19 0 44 7 54 15 11 8 36 15 55 15 20 0
45 7 55 15 11 8 27 15 37 15 9 0 22 7 29 15 7 8 23 15 35 15 12 0 28 7 35 15
7 8 20 15 30 15 10 0 23 7 30 15 7 8 20 15 30 15 10 0 23 7 30 15 7 8 20 15
29 15 10 0 26 7 37 15 10 8 26 15 34 15 8 0 38 22 67 48 29 26 82 75 119 107
100 89 124 115 156 167 16 27 33 48 38 48 4 0 13 13 19 28 6 15 23 41 37 57
15 17 37 47 51 68 26 42 78 113 121 166 33 42 32 41 114 200 37 72 72 139 77
148 5 10 38 77 74 148 35 72 68 139 74 150 6 11 30 59 53 108 23 48 46 89 50
92 4 3 11 21 14 40 4 19 11 35 16 35 6 0 10 13 10 28 0 16 7 37 15 48 8 10 15
30 15 44 0 14 7 38 15 54 8 15 15 39 15 51 0 13 7 30 15 39 8 8 15 28 15 45 0
16 7 36 15 45 8 8 15 25 15 38 0 13 6 32 14 43 7 11 16 34 18 50 3 17 15 66
28 110 12 44 25 99 29 123 5 24 13 48 19 54 7 7 12 28 12 48 0 19 7 44 15 54
8 11 15 33 15 49 0 15 5 38 12 50 11 21 21 79 47 267 7 47 18 115 26 151 8 37
15 82 15 101 0 41 18 98 31 98 5 0 9 374 9 905 l0 905 -25 0 c-16 0 -25 6 -25
16 0 12 6 15 25 10 22 -6 25 -3 25 19 0 14 -4 25 -9 25 -12 0 -31 103 -31 171
0 48 -3 57 -15 53 -10 -4 -33 13 -65 47 l-50 54 31 26 c28 23 31 29 23 60 -11
46 -6 102 11 115 11 8 12 18 3 47 -9 29 -17 37 -35 37 -18 0 -27 9 -39 40 -14
35 -21 41 -55 46 -50 8 -55 18 -30 51 15 17 18 30 11 38 -5 6 -7 34 -4 61 5
39 2 61 -16 98 -21 47 -21 76 0 76 5 0 10 9 10 20 0 11 -6 20 -14 20 -20 0
-37 -25 -30 -43 3 -8 1 -18 -5 -22 -6 -3 -12 0 -13 7 0 7 -2 18 -2 23 -1 6 -7
24 -13 40 -6 17 -17 64 -23 106 -11 66 -16 78 -37 88 -20 9 -24 17 -19 35 3
14 0 28 -8 35 -18 15 -27 49 -15 57 12 7 11 34 -1 34 -5 0 -10 -7 -10 -15 0
-19 -34 -19 -50 0 -13 15 -14 14 35 30 8 2 15 13 15 22 0 10 9 26 20 36 25 21
26 68 1 98 -16 20 -21 21 -34 10 -24 -19 -53 2 -61 43 -4 19 -13 39 -21 46
-22 18 -18 51 9 84 17 20 22 34 16 45 -5 9 -11 24 -14 34 -3 10 -10 16 -15 13
-11 -7 -23 22 -15 36 3 5 -1 25 -10 44 -9 18 -24 50 -34 69 -9 20 -23 34 -32
33 -21 -3 -80 30 -80 45 0 6 7 21 15 31 19 26 19 36 -5 66 l-19 25 -7 -42 c-3
-24 -10 -43 -15 -43 -12 0 -11 57 1 65 6 3 10 16 10 29 0 21 -8 35 -51 86
l-20 25 5 -32 c3 -18 1 -35 -4 -38 -15 -9 -40 38 -40 77 0 28 -5 40 -22 49
-13 7 -27 18 -33 25 -5 7 -23 14 -40 16 -19 2 -31 9 -33 21 -4 22 25 34 49 19
26 -17 29 -15 29 13 0 14 -4 25 -9 25 -6 0 -18 13 -27 30 -13 20 -20 26 -26
17 -13 -21 -43 7 -43 39 0 16 -13 52 -30 79 -26 43 -30 47 -33 27 -5 -31 -38
-26 -66 11 -17 23 -18 29 -7 37 8 4 20 6 28 3 20 -8 15 8 -17 52 -16 22 -46
73 -67 113 -21 39 -43 72 -49 72 -7 0 -10 8 -7 20 4 16 2 19 -11 14 -10 -4
-25 1 -36 11 -16 14 -18 26 -14 55 7 42 -12 58 -47 40 -36 -20 -38 -112 -3
-151 18 -20 61 -136 95 -254 11 -38 24 -79 29 -90 25 -58 22 -135 -6 -135 -22
0 -17 -43 7 -58 15 -9 18 -19 13 -35 -11 -37 -25 -49 -40 -36 -11 9 -14 8 -14
-4 0 -8 4 -17 8 -19 13 -5 21 -73 11 -89 -8 -11 -14 -9 -32 13 -12 15 -34 30
-50 33 -19 5 -29 15 -33 34 -9 45 -20 56 -58 59 -45 4 -58 27 -27 48 26 19 27
46 1 69 -11 10 -20 25 -20 34 0 28 -30 61 -55 61 -13 0 -27 5 -30 10 -9 15 14
40 35 40 14 0 20 11 25 41 7 38 4 44 -21 65 -42 35 -68 28 -72 -18 -3 -34 -6
-38 -31 -38 -17 0 -36 -10 -49 -25 -12 -14 -27 -25 -33 -25 -6 0 -23 -12 -38
-27 -15 -16 -62 -55 -105 -88 -43 -33 -97 -75 -120 -94 -22 -18 -52 -38 -66
-44 -14 -6 -42 -26 -62 -45 -20 -19 -52 -44 -71 -56 -19 -12 -61 -38 -92 -59
-74 -50 -282 -157 -370 -192 -38 -15 -79 -34 -90 -41 -11 -8 -26 -14 -34 -14
-8 0 -37 -11 -65 -24 -28 -13 -89 -34 -136 -46 -47 -12 -96 -28 -110 -35 -14
-7 -45 -16 -70 -19 -25 -4 -85 -14 -134 -23 -73 -14 -99 -14 -145 -5 -32 7
-69 12 -84 12 -38 0 -141 45 -207 90 -30 20 -82 54 -115 76 -33 21 -78 54
-100 74 -22 20 -61 53 -87 73 -76 61 -249 241 -246 256 7 33 32 17 125 -76
131 -132 313 -286 396 -335 37 -22 67 -44 67 -48 0 -10 82 -44 155 -64 49 -14
76 -15 150 -7 99 10 214 33 260 51 17 7 58 16 93 21 35 5 102 25 150 46 282
118 349 147 362 158 8 6 58 33 110 59 151 75 271 146 341 201 20 17 61 46 89
65 70 47 327 305 351 353 11 20 24 37 30 37 5 0 28 37 49 83 22 45 62 110 89
144 56 70 54 59 55 298 0 187 -16 430 -40 600 -29 206 -29 200 -3 237 13 18
23 38 21 45 -3 13 57 77 82 86 14 5 16 26 16 137 0 106 -3 130 -14 130 -26 0
-51 109 -36 159 10 34 75 111 94 111 5 0 18 7 28 16 14 14 20 14 33 4 13 -11
15 -9 15 13 0 17 -7 28 -20 32 -31 10 -99 -5 -118 -25 -37 -39 -157 -109 -189
-110 -16 0 -73 86 -80 121 -3 15 -14 36 -24 45 -11 9 -19 23 -19 30 0 16 71
54 100 54 11 0 34 10 50 21 18 14 38 20 53 17 16 -3 28 1 35 13 6 9 34 30 62
46 30 17 50 35 50 46 0 9 -4 17 -10 17 -5 0 -10 8 -10 18 0 28 -10 33 -35 16
-17 -11 -29 -13 -42 -6 -23 12 -41 6 -73 -24 -23 -21 -29 -23 -65 -13 -22 6
-53 25 -68 43 -16 17 -34 30 -42 28 -7 -1 -59 45 -116 104 -109 111 -205 186
-270 212 -26 10 -39 21 -39 34 0 11 -7 18 -20 18 -11 0 -20 -7 -20 -15 0 -19
-31 -35 -69 -35 -16 0 -42 -5 -56 -12 -19 -9 -31 -9 -44 -1 -22 14 -71 5 -65
-12 8 -19 -29 -29 -42 -11 -15 21 -31 20 -43 -3 -12 -22 -61 -41 -107 -41 -37
0 -45 18 -18 41 31 25 33 52 8 101 -22 44 -55 74 -66 62 -10 -9 -108 148 -108
172 0 13 9 28 20 34 34 18 36 71 3 137 -33 67 -58 76 -83 28 -19 -37 -30 -46
-55 -43 -15 2 -21 13 -25 43 -4 34 -10 41 -37 50 -44 15 -48 21 -33 49 11 21
10 29 -6 55 -11 16 -35 40 -53 53 -33 22 -42 38 -55 99 -4 19 -17 30 -46 42
-34 13 -40 20 -40 45 0 22 -9 37 -29 54 -29 23 -101 149 -114 198 -10 38 -23
53 -48 55 -36 3 -45 28 -23 58 10 15 25 24 32 22 7 -3 12 4 12 15 0 12 -7 20
-18 20 -9 0 -23 9 -29 19 -7 11 -25 26 -40 33 -20 9 -29 22 -31 43 -5 55 -12
75 -27 75 -9 0 -36 21 -60 48 -42 44 -54 70 -38 85 9 10 33 -13 33 -32 1 -24
23 -49 52 -56 23 -6 27 -3 39 37 12 36 18 43 39 43 21 0 26 -5 28 -32 3 -29 7
-33 33 -33 23 0 32 6 39 26 10 25 11 25 33 10 12 -9 32 -21 45 -28 13 -7 22
-20 22 -35 0 -26 -10 -28 -56 -11 -30 10 -33 9 -62 -23 -37 -40 -42 -79 -12
-79 13 0 25 12 34 35 24 56 52 48 71 -20 10 -33 24 -59 36 -66 16 -8 19 -17
14 -39 -9 -42 2 -54 31 -36 13 9 32 16 44 16 18 0 20 -6 20 -67 0 -66 1 -67
18 -47 9 12 26 25 38 28 18 5 24 0 38 -39 15 -37 22 -45 43 -45 25 0 25 1 9
25 -9 13 -16 35 -16 49 0 13 -7 26 -15 30 -8 3 -15 16 -15 29 0 13 -7 32 -15
43 -8 10 -15 31 -15 47 0 15 -4 27 -10 27 -5 0 -12 12 -16 28 -7 33 -30 96
-50 135 -8 16 -14 35 -14 42 0 8 -12 31 -26 52 -14 21 -44 75 -66 121 -22 45
-44 85 -49 88 -5 3 -9 15 -9 27 0 16 -3 18 -9 9 -7 -11 -10 -10 -15 3 -3 9 -6
25 -6 36 0 10 -7 19 -15 19 -9 0 -24 19 -35 44 -10 25 -30 52 -43 60 -27 19
-47 56 -47 91 0 36 -10 55 -30 55 -10 0 -34 26 -60 66 -23 36 -58 85 -78 109
-81 98 -102 128 -113 163 -6 21 -29 57 -51 82 -22 25 -37 39 -33 33 3 -7 2
-13 -4 -13 -5 0 -13 11 -18 25 -4 13 -35 55 -68 92 -69 76 -591 603 -599 603
-2 0 -27 21 -54 48 -27 26 -73 67 -102 92 -30 25 -59 51 -66 57 -7 7 -25 17
-39 23 -15 6 -29 18 -32 28 -5 20 -53 58 -53 42 0 -6 -13 -2 -30 10 -16 12
-30 28 -30 36 0 16 -46 38 -60 29 -5 -3 -12 1 -17 9 -5 8 -136 79 -293 157
-157 79 -286 146 -288 151 -2 4 -12 8 -22 8 -9 0 -23 7 -30 15 -7 8 -18 15
-26 15 -7 0 -19 6 -26 13 -7 6 -38 24 -68 40 -30 15 -82 43 -115 61 -108 62
-135 76 -151 76 -8 0 -17 7 -20 15 -4 8 -12 15 -19 15 -7 0 -28 8 -47 17 -18
9 -45 22 -60 30 -31 16 -41 17 -33 3 7 -11 -6 -13 -29 -4 -9 3 -16 15 -16 26
0 17 -5 20 -32 15 -23 -3 -47 3 -80 21 -26 13 -46 28 -44 31 3 4 -7 11 -20 18
-13 6 -24 7 -24 2 0 -16 -44 -10 -78 11 -18 11 -37 20 -43 20 -6 0 -25 6 -42
14 -18 8 -54 22 -82 32 -27 9 -57 23 -65 30 -8 6 -31 15 -50 19 -19 4 -70 21
-112 37 -60 23 -78 34 -78 49 0 10 -4 19 -10 19 -5 0 -10 -4 -10 -10 0 -5 -11
-10 -25 -10 -30 0 -95 25 -95 37 0 4 -26 8 -57 8 -51 0 -59 3 -68 23 -10 22
-35 31 -35 12 0 -12 -57 -14 -64 -2 -6 9 -99 30 -131 29 -22 0 -176 20 -213
29 -20 4 -23 9 -18 29 5 19 2 25 -10 25 -10 0 -14 -6 -11 -14 3 -8 -3 -22 -13
-31 -16 -15 -21 -15 -47 -2 -17 9 -52 14 -88 13 -37 -1 -79 5 -110 16 -67 24
-163 24 -181 1 -13 -17 -15 -17 -28 0 -18 23 -48 22 -64 -3z m208 -1180 c12
-23 33 -46 48 -53 15 -6 51 -33 81 -60 45 -40 57 -46 65 -35 6 8 17 13 23 11
7 -3 24 8 38 23 14 15 25 22 25 15 0 -6 9 -11 20 -11 35 0 146 40 168 60 25
23 45 25 61 7 8 -11 6 -20 -9 -37 -11 -13 -20 -29 -20 -37 0 -15 -79 -53 -109
-53 -34 0 -71 -39 -71 -74 0 -39 15 -56 52 -56 21 0 28 5 28 20 0 11 -7 23
-15 26 -23 9 -18 33 9 45 18 8 30 7 54 -5 37 -19 58 -13 66 20 4 13 13 24 21
24 19 0 48 57 42 81 -5 19 13 32 29 21 8 -6 11 -63 6 -115 -1 -9 -18 -25 -37
-34 -32 -15 -34 -18 -19 -34 9 -10 39 -23 67 -29 55 -13 87 -34 87 -56 0 -8
17 -22 38 -31 24 -12 38 -26 40 -41 3 -20 -1 -22 -40 -22 -39 0 -45 3 -54 28
-11 30 -42 42 -105 42 -68 0 -42 -59 38 -84 l55 -18 -6 -39 c-5 -34 -4 -39 13
-39 10 0 24 7 31 15 16 19 79 20 86 1 3 -7 -4 -29 -15 -47 -33 -54 -28 -69 22
-69 57 0 91 -19 95 -53 2 -18 -2 -29 -12 -33 -25 -9 -19 -27 14 -46 17 -9 34
-28 40 -42 5 -15 24 -32 45 -40 38 -16 43 -30 19 -57 -23 -25 -10 -74 27 -100
37 -26 48 -18 26 20 -19 33 -22 57 -7 66 11 7 66 -8 115 -31 32 -15 176 -26
194 -14 6 3 10 28 9 56 -2 37 0 49 12 49 18 0 28 -35 29 -107 1 -50 4 -60 26
-74 14 -9 25 -24 25 -33 0 -9 9 -27 19 -40 17 -23 22 -24 55 -14 35 11 36 11
36 -17 0 -21 -9 -35 -31 -51 l-31 -22 35 -31 c19 -17 43 -44 53 -59 25 -41 54
-33 81 23 12 25 33 52 47 60 23 12 28 11 46 -5 27 -24 25 -45 -3 -45 -37 0
-63 -35 -51 -68 13 -38 42 -40 70 -5 l24 28 20 -24 c12 -13 24 -31 29 -39 6
-11 12 -12 29 -3 19 10 23 8 36 -24 28 -67 93 -35 79 39 l-6 27 44 -22 c24
-12 62 -40 85 -62 39 -37 41 -42 36 -88 -4 -48 -4 -49 29 -64 52 -22 69 -40
69 -68 0 -43 -17 -75 -50 -92 -30 -15 -40 -47 -20 -60 17 -10 70 5 70 20 0 21
29 45 56 45 25 0 28 -9 18 -47 -4 -16 -14 -23 -30 -23 -21 0 -24 -5 -24 -40 0
-22 3 -40 8 -40 22 -1 43 -33 51 -76 8 -44 7 -52 -12 -72 l-21 -23 35 -32 c24
-22 39 -48 47 -80 14 -54 38 -63 53 -18 9 26 15 29 71 35 34 3 64 4 67 1 3 -3
-1 -20 -8 -38 -18 -46 -18 -58 1 -70 14 -9 23 -6 48 18 16 16 30 34 30 41 0
29 21 23 35 -10 19 -45 19 -48 -6 -75 -37 -39 0 -77 46 -47 14 9 25 25 25 36
0 39 51 15 65 -31 4 -12 1 -32 -6 -46 -11 -20 -18 -23 -39 -17 -44 12 -72 10
-84 -8 -8 -14 -7 -21 6 -35 16 -15 23 -15 66 -5 26 7 56 10 65 6 20 -7 23 -44
4 -44 -22 0 -48 -35 -41 -54 7 -18 77 -56 104 -56 9 0 25 -6 35 -14 19 -14 19
-15 -4 -33 -32 -26 -53 -87 -36 -109 17 -23 31 -11 56 47 12 27 27 49 33 49
12 0 59 -70 75 -112 9 -23 17 -28 45 -28 31 0 35 -4 55 -49 11 -27 21 -54 21
-59 0 -9 32 -22 58 -22 7 0 18 13 23 30 14 39 40 45 89 20 30 -15 41 -26 37
-38 -13 -46 -12 -47 19 -50 41 -4 64 20 64 65 l0 36 52 -7 c28 -4 55 -9 59
-11 3 -3 9 -24 13 -47 6 -39 4 -45 -20 -64 -16 -13 -24 -27 -19 -34 9 -14 51
-5 73 16 10 10 24 13 41 9 43 -11 56 -49 21 -60 -23 -7 -110 -92 -110 -106 0
-6 7 -20 14 -32 16 -24 24 -106 12 -125 -4 -7 -13 -12 -20 -12 -21 0 -47 -35
-40 -54 3 -9 10 -16 15 -16 5 0 9 -4 9 -10 0 -15 -25 -12 -59 7 -25 15 -32 16
-43 4 -11 -11 -10 -15 6 -25 11 -6 33 -23 50 -37 17 -15 41 -30 54 -34 36 -11
23 -39 -21 -46 -20 -3 -46 -14 -58 -24 -16 -15 -24 -17 -38 -8 -15 10 -23 8
-41 -12 -26 -27 -46 -24 -54 11 -9 35 -26 29 -26 -8 1 -42 33 -82 60 -75 11 3
20 1 20 -4 0 -5 -14 -12 -30 -16 -17 -3 -41 -19 -54 -36 -24 -30 -24 -30 -52
-12 -27 17 -28 17 -45 -4 -21 -26 -35 -27 -48 -3 -5 9 -26 26 -46 36 -30 17
-38 18 -45 6 -6 -10 -2 -18 11 -28 25 -17 24 -57 -2 -75 -18 -13 -20 -21 -13
-62 l7 -47 -34 4 c-19 3 -41 7 -49 9 -11 3 -16 -5 -18 -28 -3 -33 -4 -33 -57
-33 -57 0 -68 -10 -54 -49 9 -22 13 -23 57 -17 52 7 63 0 90 -54 10 -20 11
-32 1 -55 l-11 -30 -12 35 c-11 30 -20 37 -67 53 -61 19 -79 17 -79 -13 0 -16
7 -20 30 -20 32 0 50 -22 50 -64 0 -24 -4 -26 -40 -26 -31 0 -47 -6 -64 -25
-12 -13 -35 -29 -49 -34 -34 -13 -35 -38 -2 -53 29 -13 35 -62 9 -72 -21 -8
-84 3 -84 15 0 5 -5 9 -10 9 -6 0 -5 -8 2 -19 9 -15 9 -23 -2 -36 -11 -13 -23
-15 -58 -10 -38 6 -44 4 -49 -14 -7 -28 -36 -27 -81 4 -43 30 -51 30 -67 8
-11 -15 -17 -15 -40 -5 -23 11 -26 17 -22 41 6 26 3 29 -26 35 -51 9 -91 -6
-95 -36 -3 -24 8 -36 86 -99 6 -5 12 -25 12 -44 0 -29 -5 -36 -37 -52 -33 -15
-38 -23 -41 -55 -2 -24 -8 -38 -17 -38 -12 0 -45 34 -72 76 -12 19 -13 19 -28
0 -8 -11 -16 -18 -19 -15 -12 14 -26 51 -26 70 0 19 -4 21 -30 16 -24 -5 -33
-1 -52 23 -31 39 -78 63 -95 48 -22 -18 -14 -37 19 -46 43 -11 49 -39 13 -68
l-27 -21 26 -7 c21 -5 26 -12 26 -36 0 -19 -7 -34 -20 -42 -27 -17 -25 -36 6
-44 18 -5 29 -1 38 11 16 22 46 13 46 -13 0 -27 -9 -32 -35 -20 -27 12 -64 -8
-110 -60 -30 -33 -30 -34 -78 -22 -65 17 -128 8 -169 -24 -19 -14 -50 -29 -68
-32 -30 -7 -33 -5 -28 14 8 31 -23 29 -90 -5 -50 -25 -55 -26 -67 -10 -14 20
-46 22 -63 5 -19 -19 -15 -26 19 -33 17 -4 33 -14 36 -22 14 -37 -72 -58 -111
-28 -28 21 -34 19 -57 -20 -12 -20 -31 -37 -45 -40 -13 -3 -35 -7 -48 -10 -13
-3 -47 -21 -76 -40 -29 -19 -56 -35 -60 -35 -4 0 -17 16 -29 35 -20 34 -22 35
-81 35 -55 0 -61 -2 -72 -26 -10 -22 -17 -25 -41 -20 -58 12 -82 29 -85 64 -3
26 0 32 17 32 11 0 23 5 26 10 8 13 -20 24 -37 16 -64 -32 -93 -54 -96 -72 -2
-17 3 -20 32 -20 40 0 51 -7 43 -28 -4 -11 -25 -15 -86 -15 -45 0 -83 4 -87
10 -3 6 -22 8 -45 4 -37 -6 -39 -5 -39 19 0 36 -13 39 -64 14 -44 -21 -47 -21
-81 -5 -20 9 -42 17 -49 17 -14 0 -31 -44 -27 -67 1 -7 -5 -13 -14 -13 -9 0
-15 9 -15 21 0 28 -53 79 -82 79 -14 -1 -33 -14 -51 -37 -26 -35 -26 -38 -11
-61 13 -20 14 -26 3 -33 -23 -14 -41 -10 -80 16 -36 26 -37 26 -74 8 l-37 -18
-22 26 c-11 15 -33 29 -47 32 -14 4 -46 25 -71 47 -26 22 -50 40 -55 40 -5 0
-22 14 -38 30 -36 38 -49 38 -65 1 -17 -41 -6 -52 41 -45 l39 7 0 -36 c0 -27
6 -40 27 -55 36 -26 22 -42 -37 -42 -45 0 -52 3 -82 41 -28 34 -37 40 -60 35
-23 -5 -34 2 -68 37 -45 48 -49 62 -20 77 34 18 57 4 64 -40 7 -42 19 -52 30
-24 9 23 -4 115 -19 139 -7 11 -16 36 -20 55 -14 67 -43 107 -114 159 -73 53
-100 86 -83 103 6 6 23 0 47 -16 21 -14 44 -26 52 -26 15 0 103 -63 145 -104
22 -22 25 -32 21 -66 -5 -35 -3 -40 14 -40 12 0 26 7 33 15 10 13 10 19 -4 33
-24 28 -20 35 19 29 34 -6 49 6 21 16 -8 3 -16 16 -18 28 -2 15 -14 26 -33 32
-16 6 -40 18 -53 28 -13 10 -36 20 -52 24 -21 5 -32 15 -40 39 -14 43 -44 70
-70 63 -24 -6 -38 12 -19 24 25 16 67 9 96 -14 15 -13 46 -34 68 -47 22 -13
46 -32 52 -41 7 -9 24 -20 38 -23 14 -4 25 -14 25 -23 0 -23 42 -83 58 -83 35
0 20 72 -25 121 -14 15 -38 30 -54 33 -22 4 -33 14 -41 37 -7 21 -22 36 -44
45 -19 8 -34 20 -34 28 0 7 -9 25 -21 40 l-20 26 20 29 c25 35 25 42 6 109
-15 49 -18 53 -80 82 -45 22 -65 37 -65 49 0 11 -6 21 -13 24 -17 7 -53 74
-44 84 5 4 17 2 27 -5 11 -7 31 -12 45 -12 33 0 46 30 20 44 -45 26 -65 55
-65 94 0 26 -5 42 -15 46 -17 6 -21 36 -5 36 6 0 10 -4 10 -9 0 -5 7 -17 16
-25 12 -12 20 -13 35 -6 25 14 24 45 -1 77 -24 31 -25 51 -4 74 15 17 14 21
-8 61 -19 35 -29 44 -55 46 -29 3 -32 7 -35 40 -3 31 -7 37 -28 40 -60 7 -70
12 -70 38 0 20 9 29 47 46 37 16 51 18 65 9 27 -17 39 -13 78 20 l35 30 -23
19 c-12 10 -28 20 -34 22 -21 7 0 38 26 38 34 0 40 14 16 35 -18 16 -23 17
-46 5 -23 -13 -30 -12 -62 5 -48 27 -50 41 -8 66 36 21 45 46 25 66 -9 9 -26
5 -67 -13 -41 -18 -58 -21 -68 -13 -11 9 -11 16 1 40 21 39 19 48 -10 59 -15
6 -25 17 -25 29 0 22 -30 43 -47 33 -5 -4 -12 -20 -15 -35 -4 -20 0 -30 13
-38 21 -11 26 -39 7 -39 -7 0 -26 16 -41 36 -41 50 -32 84 41 162 32 34 64 62
70 62 14 0 27 44 17 59 -3 6 -20 11 -37 11 -40 0 -68 25 -68 60 0 48 -19 85
-51 99 -17 7 -33 20 -36 28 -6 16 -5 18 24 27 18 6 33 -4 80 -53 32 -34 61
-61 64 -61 4 0 18 18 33 39 26 37 27 40 12 69 -12 23 -14 46 -10 91 6 55 4 65
-20 101 -26 40 -26 40 -57 25 -31 -17 -46 -13 -67 17 -20 27 -48 22 -62 -12
-12 -30 -25 -36 -46 -22 -23 15 -25 51 -4 91 11 22 20 45 20 51 0 6 7 19 16
28 12 11 15 27 11 60 -3 32 -1 45 10 49 20 8 23 2 32 -56 9 -54 -5 -91 -35
-91 -18 0 -18 -24 1 -40 20 -17 41 -7 57 26 7 16 24 31 38 34 27 7 27 9 14 90
-10 64 -22 84 -40 69 -12 -9 -14 -7 -14 16 0 15 -9 38 -20 52 -11 14 -20 36
-20 49 0 23 55 114 69 114 4 0 16 -9 26 -20 10 -11 26 -22 36 -25 13 -4 20
-20 24 -53 11 -81 13 -84 38 -67 12 8 25 15 29 15 17 0 38 -34 38 -61 0 -22 6
-32 24 -38 21 -9 23 -14 19 -58 -6 -58 12 -89 45 -79 31 10 28 50 -6 95 -16
20 -40 60 -55 90 -14 29 -42 68 -61 87 -20 19 -40 52 -46 73 -5 21 -23 55 -40
76 l-30 37 22 17 c17 14 20 24 14 54 -6 35 -7 35 -33 22 -32 -17 -53 -5 -53
29 0 13 -7 44 -16 69 -17 50 -9 77 22 77 17 0 17 8 3 48 -9 27 -7 36 15 69 14
21 26 45 26 55 0 22 15 31 39 23 31 -10 33 -35 6 -77 -18 -27 -24 -45 -19 -63
9 -37 22 -40 51 -14 22 21 24 29 18 69 -8 54 -8 59 0 86 5 15 0 28 -13 40 -10
11 -24 28 -29 38 -9 17 -12 15 -23 -18 -6 -20 -17 -36 -24 -36 -23 0 -50 40
-55 83 -5 37 -9 42 -33 45 -24 3 -28 0 -28 -22 0 -35 -17 -75 -35 -82 -22 -9
-65 4 -65 19 0 7 20 33 45 57 50 49 57 80 23 104 -20 14 -23 13 -51 -24 -39
-54 -87 -50 -87 7 0 20 5 23 35 23 34 0 75 27 75 50 0 22 38 9 44 -15 4 -17
17 -27 44 -34 61 -18 62 -17 63 57 1 37 2 92 4 122 4 81 -28 105 -55 41 -9
-22 -8 -36 6 -70 13 -33 14 -44 4 -56 -19 -23 -49 -18 -62 10 -6 14 -18 25
-25 25 -10 0 -12 6 -7 23 19 58 -19 107 -85 107 -42 0 -92 20 -88 35 2 6 21
10 43 10 42 0 46 8 30 68 -6 27 -5 28 26 25 27 -2 34 -8 36 -28 6 -52 13 -69
31 -75 26 -8 67 10 73 32 7 26 -9 63 -27 63 -24 0 -17 15 13 27 l27 10 -33 13
c-18 7 -37 21 -43 32 -10 18 -7 24 20 45 17 13 31 32 31 41 0 10 7 28 16 41
14 20 23 23 61 18 60 -7 75 -23 44 -48 -13 -10 -19 -19 -14 -19 5 0 14 5 20
11 8 8 17 7 34 -4 17 -11 47 -14 103 -13 78 3 80 3 89 31 8 24 6 30 -22 52
-17 13 -31 31 -31 38 0 17 34 41 72 50 35 9 47 -15 27 -52 -12 -22 -11 -27 6
-39 29 -22 63 -17 81 11 14 21 24 25 64 25 27 0 55 3 64 6 25 10 19 50 -14 87
-34 39 -36 49 -15 67 8 7 15 21 15 31 0 12 7 19 20 19 27 0 38 -29 17 -45 -20
-15 -22 -45 -3 -45 7 0 20 9 27 19 19 26 59 11 59 -22 0 -13 5 -28 12 -35 17
-17 88 -15 109 4 10 9 36 18 58 21 l41 6 -45 48 c-33 35 -45 56 -45 79 0 16 4
30 8 30 5 0 25 -18 45 -40 19 -22 40 -40 45 -40 5 0 15 -13 22 -29 11 -28 48
-48 62 -33 3 4 3 26 -1 50 -5 23 -5 42 0 42 24 0 61 -23 71 -45 7 -16 19 -25
35 -25 32 0 29 23 -6 53 -16 13 -37 39 -46 58 -10 19 -35 51 -56 73 -43 42
-50 66 -19 66 13 0 27 -14 40 -40z m-1266 -2146 c-1 -5 -5 -30 -8 -56 -6 -41
-5 -47 9 -42 25 10 45 -15 45 -57 0 -30 5 -42 25 -55 36 -24 31 -50 -20 -101
-50 -51 -79 -53 -73 -6 2 22 8 28 28 28 21 0 25 5 28 36 4 49 -19 72 -63 63
-41 -7 -51 7 -31 47 14 28 14 34 1 52 -22 32 -19 73 8 92 23 16 53 16 51 -1z
m5956 -1903 c12 -23 -10 -51 -38 -51 -10 0 -43 -19 -75 -43 -35 -26 -83 -51
-120 -61 -183 -53 -376 -125 -408 -152 -8 -8 -23 -14 -33 -14 -9 0 -65 -20
-124 -45 -58 -25 -110 -45 -115 -45 -5 0 -20 -9 -34 -20 -14 -11 -37 -20 -50
-20 -13 0 -77 -27 -141 -59 -159 -81 -239 -117 -289 -130 -23 -7 -45 -16 -48
-21 -3 -6 -16 -10 -28 -10 -12 0 -42 -11 -67 -24 -25 -13 -61 -27 -80 -31 -19
-4 -51 -16 -70 -27 -34 -20 -142 -62 -250 -97 -65 -21 -151 -56 -200 -81 -30
-15 -103 -46 -400 -169 -73 -31 -121 -50 -275 -110 -71 -29 -155 -63 -185 -76
-30 -13 -66 -27 -80 -30 -14 -4 -43 -15 -65 -25 -22 -11 -71 -31 -110 -46 -73
-28 -193 -79 -281 -120 -28 -13 -96 -40 -150 -60 -312 -114 -307 -112 -559
-208 -82 -32 -163 -65 -179 -73 -17 -9 -66 -20 -110 -25 -114 -12 -194 -35
-245 -69 -56 -36 -112 -40 -135 -7 -20 28 -5 48 34 48 15 0 48 11 71 25 24 14
53 25 64 25 36 0 159 48 174 68 20 25 89 62 115 62 11 0 38 11 60 24 23 13 82
35 131 50 50 15 111 38 136 52 26 13 54 24 64 24 9 0 50 16 92 35 42 19 84 35
93 35 16 0 49 13 145 55 17 7 56 18 88 25 32 6 78 25 101 41 24 16 79 42 122
58 112 41 252 96 374 147 58 24 109 44 113 44 9 0 192 70 292 111 102 43 233
94 365 144 19 7 66 27 103 44 38 17 75 31 84 31 14 0 97 35 156 65 16 8 34 15
40 15 7 0 34 11 62 25 55 26 379 157 461 185 28 10 65 25 82 34 17 9 49 16 71
16 26 0 67 13 118 39 43 21 134 61 203 89 69 28 179 74 245 102 66 28 158 67
205 87 47 19 92 40 100 48 8 7 42 15 75 17 59 4 204 62 220 87 11 19 73 13 85
-8z m-2380 -1747 c4 -21 12 -30 29 -32 21 -3 41 4 144 54 41 20 49 18 45 -12
-2 -20 -12 -29 -41 -39 -20 -7 -44 -19 -53 -26 -16 -13 -110 -48 -130 -49 -7
0 -14 12 -17 28 -3 15 -9 39 -13 54 -8 33 1 61 19 56 6 -3 14 -18 17 -34z
m603 -724 c15 -16 32 -30 37 -30 6 0 10 -18 10 -40 0 -48 17 -59 66 -41 32 12
35 10 97 -39 36 -27 69 -50 75 -50 6 0 14 9 17 20 9 29 32 24 50 -10 9 -17 27
-35 40 -40 14 -5 25 -18 25 -28 0 -10 5 -23 12 -30 15 -15 48 -16 48 -2 0 16
26 12 41 -6 9 -11 10 -20 2 -32 -7 -13 -4 -28 14 -62 13 -25 28 -49 34 -54 15
-16 11 28 -6 50 -15 20 -20 64 -8 64 4 0 31 -23 60 -52 35 -35 53 -61 53 -76
0 -24 36 -64 94 -105 14 -10 26 -25 26 -33 0 -30 34 -74 57 -74 28 0 41 -20
19 -32 -9 -5 -16 -20 -16 -33 0 -19 9 -28 35 -39 19 -8 35 -20 35 -26 0 -6 16
-20 35 -31 41 -25 44 -35 10 -43 -34 -9 -32 -20 10 -53 20 -15 44 -43 55 -60
11 -18 26 -33 34 -33 9 0 36 -20 62 -45 25 -25 52 -45 60 -45 7 0 40 -36 71
-81 63 -88 63 -88 87 -139 16 -33 36 -65 87 -135 12 -16 35 -41 51 -54 27 -22
31 -22 45 -8 15 15 14 19 -13 52 -53 67 -57 78 -34 97 38 32 14 54 -26 23 -10
-8 -25 -15 -31 -15 -20 0 -15 35 7 55 24 21 26 67 5 85 -32 27 -12 50 44 50
15 0 31 3 34 7 4 4 43 8 87 10 59 3 87 0 111 -12 18 -10 41 -14 55 -11 13 4
46 -1 73 -9 51 -17 122 -17 128 0 4 13 -90 70 -129 79 -19 4 -30 16 -38 41
-14 41 -16 42 -39 13 -18 -22 -41 -18 -41 7 0 16 36 39 48 31 8 -5 182 42 235
63 16 6 39 11 51 11 13 0 29 7 36 16 20 23 64 14 68 -13 3 -19 10 -23 43 -23
44 0 52 16 14 30 -14 5 -25 14 -25 20 0 17 50 23 76 10 20 -11 27 -11 41 2 10
9 34 19 53 23 19 4 49 15 65 25 17 9 53 20 82 23 28 3 61 12 73 19 18 12 23
10 40 -12 26 -34 25 -48 -5 -62 -33 -15 -28 -36 13 -58 l33 -18 -27 -26 c-24
-22 -26 -28 -16 -50 6 -15 32 -35 59 -48 47 -23 48 -23 45 -67 -1 -24 -7 -51
-12 -61 -7 -13 -3 -23 14 -39 23 -22 24 -24 8 -52 -15 -26 -15 -31 -2 -39 8
-5 28 -10 43 -10 37 0 68 -17 61 -34 -3 -8 -25 -21 -49 -31 -41 -15 -44 -19
-39 -44 4 -16 1 -32 -5 -35 -14 -9 -14 -49 1 -64 18 -18 -10 -45 -40 -37 -15
4 -34 0 -49 -10 -24 -16 -26 -16 -49 6 -21 19 -26 20 -54 9 -36 -15 -36 -17
-8 -47 19 -20 20 -27 10 -44 -11 -17 -10 -24 8 -46 11 -14 20 -32 20 -39 0 -7
10 -20 22 -28 19 -14 24 -13 50 9 37 31 74 41 93 25 21 -18 19 -35 -7 -52 -20
-13 -21 -17 -9 -32 7 -9 19 -16 27 -16 19 0 44 -29 38 -44 -3 -8 -29 -16 -65
-20 -59 -7 -72 -19 -47 -44 7 -7 21 -12 33 -12 29 0 45 -19 45 -53 0 -15 5
-37 10 -48 8 -14 7 -25 -5 -41 -34 -50 -5 -94 42 -63 26 17 56 8 67 -20 3 -8
14 -15 25 -15 11 0 22 -8 26 -19 3 -10 14 -26 25 -36 11 -10 20 -22 20 -27 0
-16 -19 -8 -51 22 -18 16 -36 27 -41 24 -13 -9 -9 -102 7 -141 8 -19 15 -39
15 -44 0 -17 -30 -9 -42 12 -7 11 -29 29 -48 40 -19 11 -42 24 -51 31 -14 9
-23 5 -54 -25 -43 -41 -72 -54 -88 -38 -8 8 -6 19 6 41 23 37 4 41 -29 5 -14
-15 -34 -25 -51 -25 -15 0 -35 -5 -43 -10 -12 -8 -11 -14 9 -40 12 -17 21 -33
19 -36 -3 -2 -24 -5 -47 -6 -36 -1 -46 -7 -71 -39 -46 -57 -41 -71 23 -63 28
4 60 13 69 21 11 10 26 13 43 9 33 -8 32 -22 -3 -29 -17 -4 -33 -16 -40 -31
-9 -21 -19 -26 -46 -26 -46 0 -86 16 -86 35 0 8 -9 15 -20 15 -11 0 -27 11
-35 24 -24 36 -56 40 -80 11 -18 -23 -27 -25 -110 -25 -210 -2 -203 -3 -229
25 -24 25 -60 33 -71 15 -8 -13 -86 -13 -119 0 -14 5 -28 20 -32 35 -11 45
-34 22 -34 -35 0 -19 10 -37 32 -55 25 -21 29 -28 17 -36 -23 -14 -30 -11 -76
36 -55 58 -63 88 -32 121 12 13 28 24 35 24 6 0 17 7 24 15 14 17 72 20 101 4
16 -8 31 -4 77 22 31 17 70 42 85 55 16 13 33 24 38 24 5 0 26 8 47 17 20 9
48 19 61 22 17 4 25 14 27 34 1 16 9 37 16 47 7 9 32 43 56 74 35 46 50 79 76
174 43 152 60 256 46 282 -12 23 -23 25 -53 8 -33 -18 -107 -37 -149 -38 -28
0 -41 -6 -53 -24 -8 -12 -32 -32 -53 -42 -42 -22 -114 -68 -155 -101 -16 -13
-41 -23 -56 -23 -31 0 -50 -13 -74 -51 -10 -18 -30 -30 -61 -38 -68 -17 -79
-15 -72 13 8 31 -2 38 -33 22 -48 -25 -80 -60 -105 -116 -31 -67 -34 -94 -7
-85 10 3 23 -1 31 -10 10 -12 8 -23 -10 -57 -12 -24 -25 -45 -29 -48 -4 -3
-28 -33 -55 -67 -26 -35 -50 -63 -53 -63 -4 0 -17 10 -31 23 -23 22 -24 22
-38 3 -8 -11 -14 -25 -14 -32 0 -15 -122 -79 -169 -89 -19 -4 -44 -18 -57 -32
-27 -29 -69 -24 -78 10 -6 26 -54 57 -89 57 -18 0 -28 9 -42 40 -21 47 -46 58
-82 34 -26 -16 -27 -16 -49 10 -13 14 -27 34 -32 43 -6 10 -22 17 -39 18 -25
0 -29 4 -33 40 l-5 40 -55 8 c-30 4 -77 8 -104 7 l-49 -1 6 45 c4 25 2 58 -4
73 -6 16 -12 42 -14 58 -10 101 -19 151 -27 161 -4 6 -29 17 -54 24 l-45 13 6
49 c5 36 3 55 -8 72 -9 13 -23 48 -32 79 -22 76 -39 88 -71 54 -31 -34 -38
-34 -63 2 -34 47 -28 55 34 48 l55 -6 0 34 c0 19 -5 46 -12 60 -9 20 -8 31 2
50 12 22 11 30 -3 60 -23 49 -22 53 21 71 35 14 36 16 18 30 -32 23 -87 29
-98 10 -13 -24 -31 -20 -76 17 -22 17 -48 37 -58 43 -15 10 -17 16 -8 30 6 10
22 21 35 24 31 8 36 36 11 63 -11 12 -23 33 -27 47 -16 61 -52 130 -71 139
-14 6 -24 23 -28 45 -4 19 -16 42 -28 50 -21 15 -43 12 -33 -3 2 -5 1 -28 -4
-52 l-7 -44 -23 38 c-13 21 -34 40 -48 43 -25 7 -25 8 -19 73 3 36 6 78 6 94
0 34 33 38 51 6 7 -15 14 -18 21 -11 14 14 -30 90 -83 144 -25 26 -40 52 -44
76 -3 21 -11 54 -17 75 -9 29 -9 43 0 57 7 11 9 38 5 68 -9 81 2 115 60 176
38 40 64 57 96 66 50 13 91 6 91 -15 0 -17 36 -39 50 -30 5 3 7 19 3 35 l-5
30 49 0 c43 0 54 -4 76 -30z m-6123 -940 c30 -17 62 -30 71 -30 9 0 36 -15 61
-34 32 -24 48 -46 57 -76 7 -22 20 -44 29 -47 9 -4 28 -15 41 -25 29 -22 55
-23 76 -2 18 18 45 12 45 -11 0 -9 19 -34 43 -56 l42 -40 -45 4 c-52 6 -111
20 -195 48 -33 11 -95 32 -138 46 -89 29 -114 54 -98 96 8 21 4 33 -30 78 -63
85 -51 98 41 49z m503 -200 c18 -14 34 -19 51 -14 21 5 29 0 52 -33 44 -61 88
-84 179 -95 86 -10 123 -32 111 -63 -5 -13 -14 -16 -39 -11 -17 3 -72 10 -121
15 -76 8 -93 14 -117 37 -16 15 -31 35 -34 45 -3 10 -27 25 -53 35 -59 22 -92
51 -92 81 0 29 28 31 63 3z m1237 -737 c7 -21 19 -49 26 -63 7 -14 30 -61 50
-105 20 -44 45 -91 54 -105 10 -14 21 -36 25 -50 9 -32 96 -186 152 -271 23
-36 43 -70 43 -75 0 -19 172 -185 206 -199 38 -16 45 -35 12 -35 -74 0 -221
130 -299 266 -102 175 -115 200 -230 442 -27 56 -49 111 -49 122 0 11 -12 38
-26 60 -15 22 -24 46 -20 55 9 26 43 1 56 -42z m3790 -34 c15 -36 44 -49 105
-49 38 0 51 -6 95 -45 28 -25 55 -45 61 -45 20 0 79 -53 79 -71 0 -10 14 -34
30 -53 17 -19 35 -49 41 -68 11 -33 85 -118 102 -118 5 0 22 -11 39 -25 16
-14 35 -25 43 -25 40 0 40 -73 -1 -113 -19 -18 -22 -29 -18 -59 8 -48 -19 -66
-56 -37 -49 37 -89 15 -49 -27 17 -18 20 -27 12 -35 -11 -11 -25 -8 -85 16
-13 5 -21 0 -29 -19 -14 -30 -32 -32 -85 -10 -26 11 -43 13 -54 7 -19 -13
-123 0 -128 15 -7 23 -80 9 -154 -29 -50 -25 -84 -24 -119 5 -33 28 -24 40 25
31 40 -8 55 8 32 34 -9 10 -23 38 -31 62 -10 30 -26 51 -45 63 -34 19 -40 55
-14 77 19 15 54 83 54 103 0 28 -22 64 -46 75 -29 13 -30 28 -4 61 11 14 20
39 20 57 0 28 3 32 33 35 31 3 32 5 37 54 5 52 64 163 86 164 6 0 17 -14 24
-31z m-810 -348 c0 -24 -55 -70 -112 -96 -35 -15 -70 -33 -78 -40 -20 -16
-294 -136 -390 -170 -137 -49 -364 -123 -425 -139 -197 -50 -477 -96 -785
-127 -207 -21 -525 2 -563 40 -8 8 -7 15 1 24 14 13 2 13 432 4 295 -6 440 1
555 27 33 8 96 21 140 30 44 10 103 24 131 32 28 8 58 14 67 14 30 0 321 101
349 121 15 10 35 19 45 19 10 1 36 9 58 20 22 11 46 19 53 20 16 0 117 43 257
110 55 26 111 51 125 55 14 4 41 18 60 30 53 33 80 42 80 26z m251 -111 c10
-6 19 -20 19 -30 0 -15 -7 -20 -28 -20 -38 0 -52 -17 -52 -61 0 -30 -6 -42
-32 -63 -63 -49 -73 -59 -59 -64 7 -2 23 1 35 8 13 6 34 10 46 8 22 -3 24 -7
22 -68 -6 -163 -17 -241 -35 -255 -18 -13 -18 -14 2 -25 14 -7 21 -21 21 -38
0 -15 7 -37 15 -49 13 -18 13 -22 0 -33 -23 -19 -18 -49 10 -62 29 -13 33 -44
11 -86 -17 -35 -28 -104 -19 -118 5 -6 22 -19 40 -28 51 -26 70 -80 38 -106
-8 -7 -15 -22 -15 -35 0 -14 -9 -26 -25 -33 -14 -6 -25 -17 -25 -23 0 -17 83
-159 94 -159 4 0 21 11 38 25 17 14 42 25 59 25 27 0 29 3 29 39 0 30 6 44 22
55 23 16 50 6 43 -17 -18 -59 -16 -66 17 -69 30 -3 33 -6 33 -38 0 -25 -5 -36
-18 -38 -25 -5 -47 16 -47 44 0 36 -27 29 -44 -10 -8 -19 -26 -42 -40 -51 -14
-10 -26 -22 -26 -29 0 -6 -11 -28 -25 -49 -20 -29 -32 -37 -56 -37 -29 0 -30
1 -24 34 9 45 -1 73 -26 79 -33 9 -49 -3 -49 -37 0 -41 -11 -58 -30 -46 -22
14 -27 12 -39 -19 -7 -15 -23 -34 -37 -41 -13 -8 -24 -17 -24 -22 0 -4 -9 -8
-20 -8 -23 0 -24 3 -7 31 10 18 9 23 -12 40 -34 28 -47 24 -82 -28 -46 -69
-69 -92 -85 -86 -26 10 -14 44 32 93 25 27 43 54 39 59 -9 16 -37 13 -63 -5
-28 -20 -38 -13 -22 16 15 28 5 54 -28 70 -29 15 -29 15 -54 5 -11 -4 -24 2
-39 19 -31 36 -58 33 -96 -11 -29 -36 -33 -37 -62 -26 -20 7 -42 8 -61 3 -20
-6 -30 -4 -33 4 -7 18 9 40 23 31 16 -10 129 16 143 33 9 11 6 18 -11 33 -22
17 -22 19 -7 42 14 23 14 26 0 41 -24 24 -82 21 -95 -5 -16 -29 -7 -45 30 -52
17 -4 29 -11 25 -17 -8 -13 -42 -13 -50 0 -3 6 -26 10 -50 10 -38 0 -48 5 -67
30 -24 33 -78 43 -78 15 0 -9 -9 -15 -25 -15 -18 0 -23 4 -19 15 4 8 15 15 26
15 15 0 19 6 16 27 -2 21 -13 33 -45 48 -23 11 -57 39 -75 63 -18 23 -40 42
-50 42 -31 0 -22 38 10 42 20 2 28 9 30 27 4 28 -12 41 -53 41 -22 0 -33 -6
-40 -22 -16 -38 -49 -34 -74 7 l-21 36 55 -6 55 -7 0 31 c0 26 -6 33 -35 45
-37 16 -44 36 -20 56 8 7 15 21 15 31 0 15 -7 19 -34 19 -18 0 -39 -7 -46 -15
-11 -14 -14 -13 -25 7 -9 18 -18 22 -43 20 -18 -1 -32 2 -32 8 0 21 45 60 77
66 48 9 76 -1 128 -46 35 -30 52 -39 70 -34 12 3 26 1 29 -5 10 -16 56 -14 56
2 0 20 -29 43 -77 62 -23 9 -49 28 -58 41 -9 14 -28 29 -42 35 -40 15 -15 32
26 18 38 -13 113 3 146 31 11 10 30 21 43 25 15 4 22 14 22 30 0 40 34 50 82
25 22 -12 47 -19 54 -16 20 8 17 34 -6 48 -28 18 -25 35 13 59 24 15 42 19 75
15 l42 -6 0 38 c1 34 4 39 48 60 33 16 61 22 96 20 48 -3 49 -2 58 30 5 20 15
32 26 32 22 0 84 42 163 109 58 49 66 53 103 48 23 -3 59 -2 81 3 57 11 64 11
86 0z m2112 -691 c5 -17 12 -20 49 -17 40 3 43 1 46 -23 2 -15 14 -37 28 -49
22 -22 23 -25 7 -42 -9 -10 -24 -18 -33 -18 -24 0 -32 -38 -18 -77 14 -38 -1
-65 -24 -45 -19 15 -44 105 -31 109 6 2 19 10 29 18 26 19 7 49 -33 53 -23 2
-32 -2 -41 -23 -18 -39 -35 -32 -28 13 4 20 9 56 12 80 6 45 28 57 37 21z
m-1158 -328 c8 -16 23 -32 33 -35 22 -7 42 -46 42 -80 0 -15 -20 -45 -54 -81
l-53 -57 -19 27 c-11 15 -34 43 -51 61 -18 19 -33 41 -33 49 0 8 -9 19 -20 25
-24 13 -28 60 -5 60 8 0 15 -4 15 -8 0 -17 63 -103 82 -113 11 -6 26 -8 33 -5
15 5 7 40 -26 123 -10 26 -10 34 0 47 20 24 39 19 56 -13z m2962 -73 c13 -12
23 -32 23 -44 0 -19 -9 -26 -47 -38 -38 -11 -48 -18 -46 -34 3 -24 -21 -36
-47 -22 -29 15 -39 12 -52 -15 -6 -14 -15 -25 -21 -25 -5 0 -22 -13 -37 -30
-28 -30 -70 -39 -98 -21 -16 10 1 27 33 33 24 4 32 33 15 53 -14 17 -60 20
-60 5 0 -5 -12 -20 -26 -34 -17 -15 -25 -30 -21 -40 8 -20 -54 -51 -84 -43
-12 3 -18 3 -15 0 3 -3 -2 -12 -12 -19 -9 -7 -17 -16 -17 -21 -2 -26 -31 -83
-43 -83 -8 0 -29 9 -47 20 -51 32 -81 9 -54 -42 13 -23 4 -37 -13 -20 -21 21
-37 13 -63 -28 -22 -34 -30 -40 -60 -40 -19 0 -35 -5 -35 -11 0 -5 -12 -9 -27
-8 -57 4 -71 -1 -92 -36 -20 -34 -22 -35 -81 -35 -52 0 -60 2 -60 19 0 23 23
43 42 36 17 -7 88 21 88 35 0 13 -43 59 -58 62 -8 2 -19 -12 -25 -32 -13 -36
-30 -42 -69 -26 -19 9 -48 -37 -48 -77 0 -15 -10 -31 -25 -41 -23 -15 -24 -20
-18 -83 l6 -66 -33 6 c-18 4 -41 7 -51 7 -22 0 -25 32 -9 76 13 33 8 39 -18
23 -26 -16 -48 -6 -72 33 -15 26 -20 29 -25 15 -3 -9 -7 -24 -10 -33 -5 -14
-15 -16 -60 -11 -71 7 -90 -15 -70 -80 10 -33 -28 -50 -62 -28 -24 16 -26 16
-47 -4 -26 -25 -68 -27 -87 -5 -19 23 1 48 45 55 38 6 76 34 76 56 0 19 -24
16 -45 -7 -12 -13 -31 -20 -56 -20 -31 0 -38 -4 -41 -22 -4 -32 -30 -33 -66
-3 -25 21 -34 24 -56 15 -15 -5 -29 -17 -32 -25 -8 -19 -23 -19 -49 1 -19 14
-19 16 -2 25 9 6 17 17 17 26 0 13 -10 15 -55 11 -47 -4 -62 -10 -93 -40 -48
-46 -76 -60 -106 -52 -19 4 -25 1 -30 -19 -5 -20 -14 -27 -47 -32 -32 -6 -45
-14 -61 -40 -21 -36 -84 -75 -122 -75 -18 0 -27 -9 -39 -40 -8 -22 -24 -42
-34 -46 -10 -3 -37 -14 -61 -26 -23 -12 -45 -18 -48 -15 -3 3 -1 22 6 41 10
32 42 71 144 177 45 47 113 93 161 109 22 7 44 24 53 40 17 29 88 70 121 70
10 0 26 11 35 25 13 20 25 25 55 25 22 0 44 6 51 15 7 8 21 15 32 15 10 0 32
14 48 32 26 28 32 30 54 20 31 -14 50 -8 71 24 17 26 61 32 97 13 19 -10 26
-5 68 42 l47 53 39 -13 c35 -11 44 -10 84 8 25 11 51 21 58 21 7 0 26 10 43
22 16 12 44 27 62 33 24 8 33 17 37 40 5 30 5 30 95 38 149 14 189 14 221 1
28 -11 36 -9 67 9 19 12 47 37 62 54 24 30 31 32 65 27 21 -4 47 -1 59 6 19 9
26 9 42 -6 16 -14 23 -15 45 -6 37 18 69 15 89 -8 27 -30 36 -24 29 19 -4 24
-2 41 5 46 16 9 58 -19 66 -45 10 -32 22 -24 29 20 7 47 26 58 68 42 31 -12
112 -1 178 24 57 21 130 18 157 -8z m-3167 -3 c15 -18 6 -78 -15 -95 -10 -8
-31 -10 -64 -5 -49 7 -50 6 -56 -22 -4 -15 -12 -41 -18 -57 -9 -25 -8 -31 11
-47 23 -18 28 -54 11 -79 -8 -13 -12 -12 -26 8 -20 29 -51 29 -55 0 -2 -13
-11 -24 -21 -26 -14 -3 -25 13 -50 67 -22 50 -39 73 -54 77 -12 3 -29 14 -38
24 -14 16 -21 17 -42 7 -19 -9 -26 -8 -34 4 -18 28 -9 44 33 57 39 12 43 11
77 -12 30 -22 37 -23 44 -11 4 8 5 20 2 25 -10 15 13 49 45 65 44 23 53 19 47
-15 -9 -41 12 -49 39 -15 12 15 27 24 33 21 6 -4 25 4 42 18 34 29 70 33 89
11z m3351 -377 c13 -24 3 -36 -61 -71 -41 -22 -34 -41 18 -45 48 -4 51 -9 55
-112 2 -50 -1 -65 -13 -67 -23 -5 -70 44 -70 72 0 14 -5 25 -11 25 -7 0 -8
-12 -4 -32 12 -58 15 -65 40 -76 14 -7 30 -23 37 -37 15 -34 29 -32 69 15 19
22 37 40 42 40 11 0 8 -48 -4 -55 -5 -4 -14 -17 -20 -28 -5 -12 -15 -30 -21
-39 -16 -22 -2 -48 35 -66 35 -17 35 -45 0 -94 -23 -34 -25 -42 -14 -64 10
-22 9 -31 -5 -51 -9 -14 -24 -28 -34 -30 -10 -3 -23 -17 -29 -31 -6 -15 -25
-35 -41 -44 -20 -11 -33 -28 -36 -47 -8 -38 -20 -49 -64 -53 -34 -3 -35 -4
-32 -40 2 -33 -1 -40 -35 -62 -21 -14 -43 -26 -50 -26 -23 0 -139 -59 -158
-80 -10 -11 -23 -30 -29 -43 -8 -15 -23 -24 -47 -27 -35 -5 -79 -35 -139 -92
-29 -29 -54 -36 -65 -18 -16 25 -115 -12 -115 -43 0 -7 -6 -21 -13 -31 -13
-17 -18 -18 -64 -6 -48 13 -53 12 -94 -12 -24 -14 -59 -29 -77 -33 -25 -5 -36
-15 -44 -35 -12 -36 -59 -57 -93 -42 -21 10 -26 8 -37 -15 -17 -34 -91 -61
-191 -69 -54 -5 -84 -12 -99 -25 -28 -25 -45 -24 -85 4 -35 23 -39 32 -23 42
29 18 -3 84 -35 71 -18 -7 -20 -57 -2 -75 10 -10 5 -12 -23 -9 -31 3 -34 6
-35 33 0 44 -33 47 -37 3 -3 -31 -5 -33 -43 -33 l-40 0 1 43 c1 34 -3 42 -17
42 -10 0 -22 -7 -27 -16 -7 -13 -13 -14 -31 -5 -12 7 -31 9 -42 6 -17 -6 -20
-13 -17 -41 3 -24 0 -34 -9 -34 -32 0 -90 33 -120 67 l-32 38 -31 -24 c-42
-30 -60 -22 -60 29 0 32 4 40 19 40 10 0 30 -9 44 -20 22 -17 29 -19 46 -8 15
9 25 9 43 0 30 -15 56 -19 58 -9 1 11 -22 91 -30 100 -4 4 -19 2 -34 -4 -23
-11 -29 -10 -51 11 -22 20 -27 21 -54 10 -26 -10 -34 -9 -59 8 -15 12 -41 24
-58 28 -58 14 -66 22 -50 52 8 15 34 48 58 74 23 26 58 65 77 88 45 54 66 50
66 -12 0 -58 14 -65 37 -19 10 19 28 46 41 59 22 22 25 22 41 7 18 -18 21 -51
6 -60 -15 -9 -12 -55 4 -55 15 0 26 21 26 51 0 22 37 99 47 99 4 0 17 -9 29
-21 l22 -21 46 46 c25 26 55 46 67 46 11 0 53 16 92 35 39 19 75 35 81 35 5 0
20 -10 33 -21 24 -24 23 -25 39 29 5 17 49 15 64 -3 7 -8 24 -15 38 -15 14 0
33 -7 43 -16 11 -10 25 -13 39 -9 17 5 20 14 18 46 -2 48 2 52 76 78 33 11 69
29 80 40 15 13 30 17 53 14 26 -4 34 0 49 22 21 33 72 56 102 48 19 -5 22 -1
22 30 0 30 4 35 29 40 16 4 45 20 65 37 24 22 43 30 62 28 25 -3 29 1 34 32 7
40 61 124 85 134 9 3 26 6 37 6 12 0 36 17 55 40 l35 40 56 -7 c33 -3 73 -16
95 -30 30 -19 37 -20 37 -7 0 29 -20 52 -51 59 -17 4 -33 14 -36 23 -9 23 34
54 71 50 26 -3 32 -8 34 -33 5 -42 18 -52 41 -31 21 19 45 13 71 -18 14 -18
40 -21 40 -5 0 16 -99 109 -116 109 -8 0 -14 7 -14 16 0 15 10 16 77 10 l77
-6 -27 28 c-35 37 -34 50 6 67 17 8 49 30 70 49 65 61 91 64 118 14z m-428
-1931 c7 -22 5 -38 -9 -68 -21 -49 -7 -75 20 -35 22 35 55 32 85 -5 22 -28 23
-34 11 -68 -13 -41 -10 -97 5 -94 6 1 12 12 15 25 5 17 15 24 43 29 21 3 43
14 51 24 18 24 54 11 62 -23 4 -15 11 -33 17 -40 15 -19 4 -22 -36 -10 -44 13
-54 7 -63 -42 -6 -29 -4 -33 7 -22 7 6 21 12 31 12 28 0 23 -38 -7 -52 -16 -7
-25 -19 -25 -35 0 -14 -6 -23 -15 -23 -10 0 -15 10 -15 30 0 23 -4 30 -20 30
-18 0 -60 -35 -60 -51 0 -4 -8 -10 -17 -14 -13 -4 -25 2 -39 21 l-22 27 -21
-41 c-27 -54 -40 -60 -63 -32 -16 20 -21 21 -29 9 -5 -7 -7 -20 -4 -27 3 -8 5
-18 5 -23 0 -5 11 -14 25 -19 27 -10 34 -37 11 -46 -8 -3 -26 2 -40 11 -16 11
-35 15 -51 11 -30 -8 -45 16 -45 73 0 22 -5 43 -11 47 -7 4 -9 21 -5 46 7 44
11 44 -67 -8 l-47 -33 27 -13 c26 -13 28 -18 26 -67 -2 -45 -8 -59 -35 -87
-38 -39 -58 -42 -76 -14 -7 11 -19 20 -27 20 -20 0 -20 -50 0 -76 23 -31 18
-34 -27 -14 -24 11 -49 20 -56 20 -20 0 -52 -62 -52 -103 0 -47 -18 -46 -39 1
-17 37 -43 42 -64 12 -13 -18 -18 -19 -41 -9 -36 17 -42 6 -21 -41 15 -32 15
-42 5 -55 -17 -21 -37 -19 -58 6 -61 76 -59 74 -76 60 -12 -10 -14 -23 -10
-52 6 -35 4 -39 -15 -39 -18 0 -21 6 -21 38 0 32 -5 41 -25 50 -15 7 -25 20
-25 32 0 33 -17 57 -44 64 -29 7 -43 41 -26 61 7 8 26 15 42 15 16 0 47 9 69
20 22 12 44 18 50 14 5 -3 17 -3 25 0 13 5 13 9 -1 35 -14 29 -14 31 7 43 13
7 45 13 73 13 39 0 50 4 53 17 4 21 -51 58 -86 58 -12 0 -32 11 -44 26 -19 21
-28 24 -58 19 -23 -4 -42 -1 -54 8 -28 20 -14 47 24 47 23 0 40 10 65 35 30
33 36 35 73 29 34 -5 42 -3 51 15 10 17 15 19 35 10 19 -9 29 -8 47 5 13 8 32
13 45 10 15 -4 26 1 38 17 15 21 16 22 34 6 35 -32 46 -23 42 36 -1 23 5 30
42 47 35 16 56 18 115 13 68 -5 74 -4 104 21 42 36 64 31 64 -14 0 -31 -4 -36
-33 -45 -29 -8 -32 -12 -26 -38 4 -22 1 -32 -19 -47 -33 -26 -40 -57 -17 -70
29 -15 37 -12 57 20 9 17 21 30 25 30 5 0 11 -13 15 -30 9 -47 28 -35 48 29
17 56 17 62 1 94 -23 50 -20 70 14 95 16 12 33 34 36 48 8 33 34 28 47 -9z
m-1029 -689 c9 -12 16 -30 16 -40 0 -10 13 -24 29 -32 37 -20 49 -72 26 -116
-8 -16 -18 -30 -21 -30 -4 0 -24 20 -46 45 -22 25 -43 45 -48 45 -4 0 -14 -19
-22 -42 -16 -51 -39 -59 -62 -23 -21 33 -14 55 17 55 13 0 29 6 35 12 7 7 20
13 29 13 9 0 21 8 27 17 17 28 -23 73 -63 72 -26 -2 -31 2 -31 22 0 22 4 24
49 24 40 0 53 -4 65 -22z"/>
<path d="M11530 14815 c0 -8 37 -33 83 -57 77 -40 82 -45 85 -78 4 -39 36 -80
62 -80 36 0 69 -38 72 -83 3 -37 6 -42 28 -42 36 0 41 47 7 70 -15 9 -28 30
-31 50 -4 21 -19 44 -39 61 -18 15 -54 52 -81 83 -27 31 -63 64 -80 73 -39 22
-106 24 -106 3z"/>
<path d="M9529 13938 c-19 -36 -52 -57 -86 -58 -45 0 -55 -23 -36 -82 13 -40
21 -48 59 -63 24 -9 53 -28 63 -41 16 -21 27 -25 58 -22 33 3 38 7 41 30 3 24
-1 27 -39 33 -28 5 -43 13 -46 26 -3 10 -16 25 -29 34 -27 17 -32 35 -9 35 8
0 15 -4 15 -10 0 -19 47 -41 74 -34 37 9 32 26 -20 69 l-45 37 20 22 c12 12
21 28 21 34 0 20 -29 13 -41 -10z"/>
<path d="M10365 9055 c-35 -34 -31 -45 15 -45 33 0 42 -4 54 -28 25 -49 98
-68 129 -34 23 25 24 120 2 129 -21 8 -27 0 -34 -44 -9 -57 -38 -56 -74 2 -33
52 -56 57 -92 20z"/>
<path d="M11096 8695 c-28 -28 -4 -39 84 -41 89 -1 110 -11 110 -56 0 -33 19
-44 49 -28 32 16 29 68 -4 76 -20 5 -25 12 -25 36 0 30 0 31 -42 24 -57 -10
-66 -10 -114 -1 -32 5 -44 3 -58 -10z"/>
</g>
</svg>
